<svg xmlns="http://www.w3.org/2000/svg" viewBox="0 0 360 127.98"><defs><style>.cls-1{fill:#695f4a;}.cls-2{fill:#f3733e;}</style></defs><title>quantil-logo</title><g id="Layer_2" data-name="Layer 2"><g id="Layer_1-2" data-name="Layer 1"><path class="cls-1" d="M146.61,56.12V87.18c0,10.08,1.77,12.71,8.36,12.71a15.77,15.77,0,0,0,13-6.64V56.12h11.2v52.15H168v-5c-4.59,4.81-9.26,5.71-14.67,5.71-9.53,0-17.89-4.93-17.89-23.25V56.12Z"/><path class="cls-1" d="M221.67,72.06V97.94c0,1.61.59,2.41,2,2.41,1.06,0,3.06-.92,5.53-2.75v7.33c-4,2.63-6.68,4.49-10.09,4.49-3.77,0-7.09-1.24-8-5a22.18,22.18,0,0,1-14.24,4.54,12.67,12.67,0,0,1-13-12.6c0-9.39,5.87-12.71,26.58-19.47V74.73c0-6.41-2.57-8.93-8.81-8.93-5.76,0-11.65,3-16.71,8.84V62.44c4.12-4.7,10.12-7,17.54-7C214.61,55.45,221.67,62.21,221.67,72.06ZM202,101c3.29,0,5.63-.88,8.45-3.52V83.21c-12.12,3.89-15.26,6.49-15.26,11.3C195.21,98.52,197.54,101,202,101Z"/><path class="cls-1" d="M279.17,76.87v31.76H267.43V77.1c0-10.66-3.93-12.43-9.58-12.43-4.82,0-8.79,2-12,6.47v37.49h-11.2V56.12h11.2v5.66c4.71-5.27,10.57-6.33,15.4-6.33C272.58,55.45,279.17,63.24,279.17,76.87Z"/><path class="cls-1" d="M304.37,44.65h.23L305,56.12h15.62V66.37H305V89.58c0,5.16.18,9.55,6.77,9.55,4.35,0,8.4-2,11.69-4.11v10.75c-2.94,2.14-7.18,3.75-13.83,3.6-10.36-.24-16.22-5.47-16.22-19.79V66.37h-8.79V64.61Z"/><path class="cls-1" d="M342,41.17a6.58,6.58,0,0,1-13.16,0,6.58,6.58,0,0,1,13.16,0ZM341,56.12v52.51h-11.2V56.12Z"/><path class="cls-1" d="M360,29.79v78.84H348.44V29.79Z"/><g id="Layer_1-2-2" data-name="Layer 1-2"><path class="cls-1" d="M0,59.78a55.94,55.94,0,0,1,1.42-10.7A58.05,58.05,0,0,1,11.68,26.54a67.43,67.43,0,0,1,9.65-10.47A63.57,63.57,0,0,1,42.77,3.36,59.55,59.55,0,0,1,60.59.05c.64-.06,6.56-.08,7.09,0,1.47.15,3,.21,4.41.36A58,58,0,0,1,91.54,6.09a68.89,68.89,0,0,1,21.52,16.43A58.24,58.24,0,0,1,123.79,39.9a62,62,0,0,1,4.09,17.19,70.86,70.86,0,0,1-.13,16.21,58.47,58.47,0,0,1-13,29.37c-1.11,1.36-2.26,2.67-3.42,4-.49.54-.56,1,0,1.52q6.86,6.61,13.67,13.27c2,1.91,3.88,3.86,5.81,5.8H109.17c-.4-.45-.77-.92-1.19-1.34L77.23,95.32q-8.91-8.88-17.79-17.77c-.3-.3-1-1.09-1-1.09l20.42,0a2.55,2.55,0,0,1,1.88.82c1.86,1.85,3.78,3.65,5.65,5.5,3.54,3.51,7.06,7,10.6,10.55,1,1,1.09.94,1.94,0a41.79,41.79,0,0,0,11-28.11q0-3.53-.29-7a42.68,42.68,0,0,0-4.37-15.75A46.1,46.1,0,0,0,93.9,27.84a43,43,0,0,0-14.39-8.36,50.46,50.46,0,0,0-24-1.81A41,41,0,0,0,34.2,27.53C24.44,36.08,19.32,47,18.42,59.86A52.52,52.52,0,0,0,19,73.28a43.64,43.64,0,0,0,4.52,13.15,44.14,44.14,0,0,0,9.91,12.14,48.72,48.72,0,0,0,12.73,8A44.43,44.43,0,0,0,70,109.47a2.23,2.23,0,0,1,2.16.73c2.73,2.77,5.49,5.51,8.24,8.26l4.43,4.41c.35.35.47.62-.13.8-.33.1-.62.22-.93.33a58.4,58.4,0,0,1-15.93,2.92,109.63,109.63,0,0,1-12-.37A58.76,58.76,0,0,1,36.22,121a67.36,67.36,0,0,1-20.74-15.34A56.52,56.52,0,0,1,4.38,88.3,59,59,0,0,1,0,67.86C0,67.27,0,60.37,0,59.78Z"/></g><path class="cls-2" d="M148.55,118.13a9,9,0,0,0-4.4-1.29,4.79,4.79,0,1,0,.08,9.57,7.58,7.58,0,0,0,2.79-.54v-2.58h-2.38v-1.56h4.16V127a10.51,10.51,0,0,1-4.54,1c-4.7,0-6.77-3.33-6.77-6.25a6.44,6.44,0,0,1,6.7-6.47,9.93,9.93,0,0,1,4.36,1.06Z"/><path class="cls-2" d="M154.79,115.43a3.43,3.43,0,0,1,3.76,3.45,3.09,3.09,0,0,1-2.07,3.05c.73.47,1.07.76,2.27,2.58l2.18,3.3h-2.1l-2-3c-1.25-2-2-2.34-2.9-2.34h-.8v5.39h-1.78V115.43Zm-1.63,5.43h1.14c1.29,0,2.44-.33,2.44-2,0-1.2-.73-1.89-2.07-1.89h-1.51Z"/><path class="cls-2" d="M174.7,121.6a6.37,6.37,0,0,1-6.78,6.38,6.37,6.37,0,1,1,6.78-6.38Zm-11.48.06a4.64,4.64,0,0,0,4.74,4.65c2.63,0,4.9-1.57,4.9-4.73a4.67,4.67,0,0,0-4.79-4.65A4.55,4.55,0,0,0,163.22,121.66Z"/><path class="cls-2" d="M176.8,115.43l3.42,8.53,3.43-8.53h1.69l3.45,8.53,3.38-8.53h1.76l-5,12.46h-.38l-4-10.1-4.09,10.1H180l-5-12.46Z"/><path class="cls-2" d="M197.07,115.43v12.38h-1.78V115.43Z"/><path class="cls-2" d="M201.27,115.43l8.3,9.6v-9.6h1.7v12.38h-1.54l-8.23-9.53v9.53h-1.71V115.43Z"/><path class="cls-2" d="M224.51,118.13a8.93,8.93,0,0,0-4.39-1.29,4.79,4.79,0,1,0,.07,9.57,7.66,7.66,0,0,0,2.8-.54v-2.58h-2.38v-1.56h4.16V127a10.57,10.57,0,0,1-4.54,1c-4.71,0-6.78-3.33-6.78-6.25a6.44,6.44,0,0,1,6.7-6.47,9.9,9.9,0,0,1,4.36,1.06Z"/><path class="cls-2" d="M240.82,115.43V117H236v3.44h4.83v1.6H236v5.75h-1.78V115.43Z"/><path class="cls-2" d="M255.47,121.6A6.37,6.37,0,0,1,248.7,128a6.37,6.37,0,1,1,6.77-6.38Zm-11.47.06a4.63,4.63,0,0,0,4.74,4.65c2.63,0,4.9-1.57,4.9-4.73a4.67,4.67,0,0,0-4.79-4.65A4.55,4.55,0,0,0,244,121.66Z"/><path class="cls-2" d="M261.07,115.43a3.43,3.43,0,0,1,3.76,3.45,3.1,3.1,0,0,1-2.07,3.05c.72.47,1.07.76,2.27,2.58l2.18,3.3H265.1l-2-3c-1.25-2-2-2.34-2.91-2.34h-.8v5.39h-1.78V115.43Zm-1.64,5.43h1.15c1.29,0,2.43-.33,2.43-2,0-1.2-.73-1.89-2.07-1.89h-1.51Z"/><path class="cls-2" d="M286.31,118.13a9,9,0,0,0-4.39-1.29,4.79,4.79,0,1,0,.07,9.57,7.66,7.66,0,0,0,2.8-.54v-2.58h-2.38v-1.56h4.16V127a10.58,10.58,0,0,1-4.55,1c-4.7,0-6.77-3.33-6.77-6.25a6.44,6.44,0,0,1,6.7-6.47,9.9,9.9,0,0,1,4.36,1.06Z"/><path class="cls-2" d="M292.56,115.43a3.43,3.43,0,0,1,3.76,3.45,3.1,3.1,0,0,1-2.07,3.05c.72.47,1.07.76,2.27,2.58l2.18,3.3h-2.11l-2-3c-1.25-2-2-2.34-2.91-2.34h-.8v5.39h-1.78V115.43Zm-1.64,5.43h1.15c1.29,0,2.43-.33,2.43-2,0-1.2-.73-1.89-2.07-1.89h-1.51Z"/><path class="cls-2" d="M311.74,121.6A6.37,6.37,0,0,1,305,128a6.37,6.37,0,1,1,6.78-6.38Zm-11.48.06a4.63,4.63,0,0,0,4.74,4.65c2.63,0,4.9-1.57,4.9-4.73a4.67,4.67,0,0,0-4.79-4.65A4.55,4.55,0,0,0,300.26,121.66Z"/><path class="cls-2" d="M313.84,115.43l3.42,8.53,3.43-8.53h1.69l3.45,8.53,3.38-8.53H331l-5,12.46h-.39l-4.05-10.1-4.08,10.1h-.38l-5-12.46Z"/><path class="cls-2" d="M339.36,115.43V117h-5.25v3.77h5.07v1.58h-5.07v3.85h5.41v1.6h-7.19V115.43Z"/><path class="cls-2" d="M345.2,115.43a3.43,3.43,0,0,1,3.76,3.45,3.09,3.09,0,0,1-2.07,3.05c.73.47,1.07.76,2.27,2.58l2.18,3.3h-2.1l-2-3c-1.25-2-2-2.34-2.9-2.34h-.8v5.39h-1.78V115.43Zm-1.63,5.43h1.14c1.29,0,2.44-.33,2.44-2,0-1.2-.73-1.89-2.07-1.89h-1.51Z"/><path class="cls-2" d="M358.93,116.13v2a4.05,4.05,0,0,0-2.9-1.29c-1.13,0-1.82.58-1.82,1.44,0,.69.15,1.29,2,2.38,2.61,1.5,3.17,2.37,3.17,4.06a3.3,3.3,0,0,1-3.59,3.24,5.56,5.56,0,0,1-3.34-1.15v-2.25a4.23,4.23,0,0,0,3.34,1.82,1.68,1.68,0,0,0,1.81-1.64c0-.83-.23-1.4-2.68-2.83-1.84-1.07-2.53-2.05-2.53-3.58,0-1.76,1.53-3.09,3.65-3.09A5.17,5.17,0,0,1,358.93,116.13Z"/></g></g></svg>